<svg width="1392" height="1392" viewBox="0 0 1392 1392" fill="none" xmlns="http://www.w3.org/2000/svg">
<circle cx="696" cy="696" r="696" fill="#E0DDFF"/>
<mask id="mask0_347_4060" style="mask-type:alpha" maskUnits="userSpaceOnUse" x="0" y="0" width="1392" height="1392">
<circle cx="696" cy="696" r="696" fill="#FFEDEF"/>
</mask>
<g mask="url(#mask0_347_4060)">
<g clip-path="url(#clip0_347_4060)">
<path d="M893.81 1327.9C841.06 1254.63 799.789 1112.99 794.904 1042.17L543.978 934.105L439.578 1327.9H893.81Z" fill="#F9C9B6" stroke="black" stroke-width="14.6526"/>
<mask id="mask1_347_4060" style="mask-type:alpha" maskUnits="userSpaceOnUse" x="439" y="934" width="455" height="431">
<path d="M893.81 1364.53C841.06 1291.26 799.789 1112.99 794.904 1042.17L543.978 934.105L439.578 1364.53H893.81Z" fill="#F9C9B6"/>
</mask>
<g mask="url(#mask1_347_4060)">
<g style="mix-blend-mode:multiply">
<ellipse cx="783.915" cy="926.779" rx="216.126" ry="197.811" fill="black"/>
</g>
</g>
<mask id="path-6-inside-1_347_4060" fill="white">
<path d="M599.23 245.831C751.523 209.343 904.557 302.693 941.988 454.511L941.992 454.51L942.285 455.735C942.336 455.946 942.388 456.156 942.439 456.367C942.477 456.529 942.515 456.691 942.553 456.852L1002.73 707.997C1002.81 708.357 1002.9 708.717 1002.99 709.078C1003.07 709.406 1003.14 709.736 1003.22 710.064L1004.23 714.294L1004.19 714.304C1037.47 865.476 943.623 1016.07 792.452 1052.29C641.282 1088.51 489.38 996.793 450.54 846.953L450.49 846.966L388.248 587.182L388.255 587.18C352.822 434.883 446.937 282.319 599.23 245.831Z"/>
</mask>
<path d="M599.23 245.831C751.523 209.343 904.557 302.693 941.988 454.511L941.992 454.51L942.285 455.735C942.336 455.946 942.388 456.156 942.439 456.367C942.477 456.529 942.515 456.691 942.553 456.852L1002.73 707.997C1002.81 708.357 1002.9 708.717 1002.99 709.078C1003.07 709.406 1003.14 709.736 1003.22 710.064L1004.23 714.294L1004.19 714.304C1037.47 865.476 943.623 1016.07 792.452 1052.29C641.282 1088.51 489.38 996.793 450.54 846.953L450.49 846.966L388.248 587.182L388.255 587.18C352.822 434.883 446.937 282.319 599.23 245.831Z" fill="#F9C9B6"/>
<path d="M599.23 245.831L595.816 231.581L595.816 231.581L599.23 245.831ZM941.988 454.511L927.761 458.019L931.116 471.628L944.861 468.88L941.988 454.511ZM941.992 454.51L956.243 451.101L952.959 437.374L939.119 440.142L941.992 454.51ZM942.285 455.735L928.035 459.144L928.039 459.163L928.044 459.181L942.285 455.735ZM942.439 456.367L956.688 452.953V452.953L942.439 456.367ZM942.553 456.852L928.298 460.242L928.301 460.254L928.304 460.266L942.553 456.852ZM1002.73 707.997L988.477 711.411L988.483 711.438L988.49 711.465L1002.73 707.997ZM1002.99 709.078L1017.24 705.664L1002.99 709.078ZM1003.22 710.064L988.96 713.428L988.966 713.454L988.972 713.479L1003.22 710.064ZM1004.23 714.294L1007.57 728.561L1021.92 725.204L1018.48 710.879L1004.23 714.294ZM1004.19 714.304L1000.85 700.037L986.77 703.333L989.879 717.455L1004.19 714.304ZM792.452 1052.29L795.866 1066.54L792.452 1052.29ZM450.54 846.953L464.724 843.276L461.079 829.214L446.986 832.738L450.54 846.953ZM450.49 846.966L436.24 850.38L439.688 864.77L454.043 861.181L450.49 846.966ZM388.248 587.182L384.223 573.093L370.729 576.949L373.999 590.596L388.248 587.182ZM388.255 587.18L392.281 601.269L405.686 597.439L402.527 583.86L388.255 587.18ZM599.23 245.831L602.644 260.08C747.098 225.47 892.257 314.016 927.761 458.019L941.988 454.511L956.214 451.004C916.857 291.37 755.947 193.215 595.816 231.581L599.23 245.831ZM941.988 454.511L944.861 468.88L944.866 468.879L941.992 454.51L939.119 440.142L939.114 440.143L941.988 454.511ZM941.992 454.51L927.742 457.92L928.035 459.144L942.285 455.735L956.536 452.326L956.243 451.101L941.992 454.51ZM942.285 455.735L928.044 459.181C928.119 459.492 928.139 459.571 928.189 459.781L942.439 456.367L956.688 452.953C956.637 452.741 956.554 452.399 956.527 452.289L942.285 455.735ZM942.439 456.367L928.189 459.781C928.262 460.086 928.183 459.76 928.298 460.242L942.553 456.852L956.808 453.463C956.797 453.415 956.785 453.366 956.764 453.274C956.745 453.194 956.718 453.077 956.688 452.953L942.439 456.367ZM942.553 456.852L928.304 460.266L988.477 711.411L1002.73 707.997L1016.98 704.583L956.802 453.438L942.553 456.852ZM1002.73 707.997L988.49 711.465C988.587 711.864 988.661 712.167 988.739 712.492L1002.99 709.078L1017.24 705.664C1017.14 705.267 1017.04 704.85 1016.96 704.528L1002.73 707.997ZM1002.99 709.078L988.739 712.492C988.812 712.796 988.861 713.011 988.96 713.428L1003.22 710.064L1017.48 706.7C1017.43 706.46 1017.32 706.017 1017.24 705.664L1002.99 709.078ZM1003.22 710.064L988.972 713.479L989.986 717.709L1004.23 714.294L1018.48 710.879L1017.47 706.649L1003.22 710.064ZM1004.23 714.294L1000.9 700.027L1000.85 700.037L1004.19 714.304L1007.53 728.571L1007.57 728.561L1004.23 714.294ZM1004.19 714.304L989.879 717.455C1021.44 860.841 932.427 1003.68 789.038 1038.04L792.452 1052.29L795.866 1066.54C954.818 1028.45 1053.49 870.112 1018.5 711.154L1004.19 714.304ZM792.452 1052.29L789.038 1038.04C645.649 1072.39 501.563 985.4 464.724 843.276L450.54 846.953L436.356 850.629C477.196 1008.19 636.914 1104.62 795.866 1066.54L792.452 1052.29ZM450.54 846.953L446.986 832.738L446.936 832.75L450.49 846.966L454.043 861.181L454.094 861.168L450.54 846.953ZM450.49 846.966L464.739 843.552L402.498 583.768L388.248 587.182L373.999 590.596L436.24 850.38L450.49 846.966ZM388.248 587.182L392.274 601.271L392.281 601.269L388.255 587.18L384.23 573.091L384.223 573.093L388.248 587.182ZM388.255 587.18L402.527 583.86C368.918 439.403 458.189 294.69 602.644 260.08L599.23 245.831L595.816 231.581C435.685 269.948 336.727 430.364 373.984 590.501L388.255 587.18Z" fill="black" mask="url(#path-6-inside-1_347_4060)"/>
</g>
<path d="M761.119 778.286C800.817 771.102 837.973 804.037 846.062 848.731C854.15 893.425 830.893 937.293 791.196 944.477C751.498 951.662 714.342 918.727 706.253 874.033C698.164 829.339 721.421 785.471 761.119 778.286Z" fill="black" stroke="black" stroke-width="13.1549"/>
<mask id="mask2_347_4060" style="mask-type:alpha" maskUnits="userSpaceOnUse" x="711" y="783" width="131" height="156">
<ellipse cx="776.157" cy="861.382" rx="64.4627" ry="77.8679" transform="rotate(-10.2582 776.157 861.382)" fill="#171921"/>
</mask>
<g mask="url(#mask2_347_4060)">
<ellipse cx="788.1" cy="927.365" rx="74.0127" ry="67.0529" transform="rotate(-10.2582 788.1 927.365)" fill="#FC909F"/>
</g>
<circle cx="612.793" cy="583.405" r="43.9579" transform="rotate(-6.27568 612.793 583.405)" fill="#D2EFF3"/>
<ellipse cx="617.519" cy="616.975" rx="32.9684" ry="49.4526" transform="rotate(-6.77646 617.519 616.975)" fill="black"/>
<circle cx="846.426" cy="551.799" r="43.9579" transform="rotate(-6.27568 846.426 551.799)" fill="#D2EFF3"/>
<ellipse cx="851.962" cy="580.341" rx="32.9684" ry="49.4526" transform="rotate(-6.27568 851.962 580.341)" fill="black"/>
<path d="M802.23 484.322C822.988 474.554 871.83 465.64 901.136 508.133" stroke="black" stroke-width="14.6526" stroke-linecap="round"/>
<path d="M525.952 577.024C533.537 555.373 561.419 514.292 612.266 523.181" stroke="black" stroke-width="14.6526" stroke-linecap="round"/>
<path d="M535.092 554.814L512.569 534.936" stroke="black" stroke-width="14.6526" stroke-linecap="round"/>
<path d="M890.003 487.775L912.526 467.896" stroke="black" stroke-width="14.6526" stroke-linecap="round"/>
<path d="M558.716 534.142L543.892 508.014" stroke="black" stroke-width="14.6526" stroke-linecap="round"/>
<path d="M862.716 474.429L877.54 448.301" stroke="black" stroke-width="14.6526" stroke-linecap="round"/>
<path d="M588.3 520.903L580.237 491.965" stroke="black" stroke-width="14.6526" stroke-linecap="round"/>
<path d="M829.469 472.18L837.531 443.242" stroke="black" stroke-width="14.6526" stroke-linecap="round"/>
<path d="M604.243 438.603L610.293 439.56C611.157 439.698 611.157 439.701 611.156 439.704C611.156 439.706 611.155 439.712 611.154 439.716C611.153 439.724 611.152 439.733 611.15 439.743C611.147 439.763 611.143 439.785 611.139 439.811C611.13 439.861 611.12 439.922 611.106 439.995C611.08 440.141 611.043 440.333 610.994 440.567C610.896 441.037 610.75 441.684 610.538 442.502C610.114 444.139 609.425 446.463 608.337 449.438C606.159 455.392 602.381 463.939 595.907 474.799C584.296 494.277 564.032 521.166 528.812 553.882C638.6 556.62 730.303 521.252 795.571 484.162C829.86 464.677 856.788 444.752 875.122 429.719C884.286 422.204 891.295 415.918 895.995 411.53C898.345 409.337 900.117 407.618 901.291 406.458C901.878 405.878 902.316 405.438 902.602 405.147C902.745 405.002 902.85 404.895 902.917 404.826C902.95 404.792 902.974 404.768 902.988 404.753C902.995 404.746 903 404.741 903.002 404.738C903.003 404.737 903.003 404.737 903.004 404.736L911.361 396.042L914.764 407.614L908.049 409.59C914.541 407.681 914.757 407.618 914.765 407.617C914.765 407.619 914.767 407.622 914.768 407.626C914.77 407.633 914.772 407.644 914.776 407.657C914.784 407.685 914.797 407.726 914.812 407.78C914.845 407.89 914.893 408.053 914.956 408.268C915.082 408.697 915.269 409.336 915.514 410.172C916.003 411.844 916.722 414.308 917.643 417.474C919.483 423.804 922.129 432.945 925.351 444.188C931.794 466.674 940.545 497.578 949.771 531.246C968.187 598.452 988.615 677.09 996.269 721.619C1011.55 810.516 980.357 873.849 971.968 902.822C972.163 902.987 972.42 903.188 972.754 903.425C974.941 904.975 978.82 906.763 984.426 908.545C995.473 912.056 1011.24 914.936 1028.1 916.559C1044.93 918.178 1062.45 918.507 1076.95 917.092C1084.21 916.383 1090.53 915.255 1095.55 913.723C1100.36 912.251 1103.38 910.584 1105.01 909.079C1105.06 908.766 1105.13 908.012 1104.95 906.559C1104.59 903.717 1103.46 899.715 1101.51 894.421C1097.62 883.841 1091.22 870.084 1083.92 853.471C1069.52 820.725 1052.21 778.14 1048.43 734.754C1044.18 685.779 1054.08 644.005 1062.74 606.489C1071.49 568.613 1078.76 535.721 1071.29 502.388C1059.95 451.798 1044.48 409.68 1020.72 379.415C997.219 349.472 965.338 330.785 920.003 327.349L915.321 326.993L913.873 322.526C893.013 258.164 864.851 216.108 828.939 190.028C793.041 163.958 748.513 153.211 693.626 153.211C592.202 153.211 482.984 191.745 401.022 258.41C319.146 325.007 264.96 419.207 272.05 530.705C279.874 653.755 270.956 747.058 250.846 815.379C232.508 877.676 204.716 919.65 171.402 944.135C175.773 946.367 181.6 949.204 188.879 952.448C207.293 960.656 235.001 971.491 271.936 981.854C342.761 1001.73 447.567 1019.87 585.909 1014.41C555.415 988.213 524.647 956.428 500.286 922.83C472.326 884.268 452.17 842.45 451.58 803.501C450.879 757.248 454.013 636.215 454.981 611.161C457.233 552.93 494.621 508.045 530.215 478.188C548.115 463.174 565.848 451.713 579.096 444.007C585.727 440.15 591.253 437.222 595.14 435.251C597.083 434.265 598.618 433.517 599.678 433.012C600.207 432.759 600.618 432.566 600.902 432.435C601.044 432.369 601.154 432.318 601.231 432.282C601.27 432.265 601.301 432.25 601.323 432.24C601.334 432.235 601.344 432.232 601.351 432.229C601.354 432.227 601.358 432.225 601.359 432.225C601.362 432.223 601.365 432.222 604.243 438.603ZM604.243 438.603L601.365 432.222L613.177 426.893L611.158 439.693L604.243 438.603Z" fill="#D2EFF3" stroke="black" stroke-width="14"/>
<path d="M915.79 326.02C917.622 342.504 914.691 375.472 910.295 397.451" stroke="black" stroke-width="14.6526"/>
<path d="M746.485 633.614C747.23 647.689 752.704 677.87 768.642 685.987C788.564 696.135 772.946 729.772 735.651 727.615" stroke="black" stroke-width="14.6526"/>
<path d="M479.873 793.206L477.917 795.314C464.516 809.753 446.916 820.549 426.845 820.549C414.691 820.549 403.28 818.757 394.365 813.69C385.012 808.375 378.959 799.748 377.533 787.776C377.038 783.623 377.355 779.676 378.422 776.016C365.426 764.601 357.589 747.424 355.644 724.084C353.648 700.132 361.165 680.918 375.098 667.777C388.877 654.782 408.22 648.381 428.881 648.381C446.068 648.381 462.701 652.973 476.378 661.366L479.873 663.511V793.206Z" stroke="black" stroke-width="14.6526"/>
<path d="M428.881 655.707C467.32 655.707 502.145 680.554 502.145 717.981C502.145 720.429 502.01 722.847 501.75 725.228C499.724 761.748 467.533 813.223 426.845 813.223C403.629 813.223 387.113 806.257 384.808 786.91C384.209 781.88 385.154 777.474 387.31 773.724C373.738 764.034 364.983 747.937 362.945 723.476C359.282 679.518 390.443 655.707 428.881 655.707Z" fill="#F9C9B6"/>
<path d="M445.073 686.844C430.42 680.128 398.185 676.587 386.462 716.149" stroke="black" stroke-width="14.6526"/>
<path d="M406.61 688.676C414.547 695.392 429.688 716.149 426.757 745.455" stroke="black" stroke-width="14.6526"/>
<circle cx="421.262" cy="791.242" r="14.6526" fill="white"/>
<circle cx="424.925" cy="787.579" r="3.66316" fill="#FFEDEF"/>
<path d="M466.851 1195.7C472.718 1194.36 480.696 1194.77 490.67 1197.09C500.542 1199.38 511.797 1203.42 523.936 1208.75C548.21 1219.42 575.308 1234.98 600.773 1251.1C626.2 1267.19 649.81 1283.73 667.075 1296.24C675.704 1302.5 682.738 1307.74 687.609 1311.42C690.045 1313.26 691.939 1314.71 693.222 1315.69C693.863 1316.18 694.351 1316.56 694.678 1316.81C694.841 1316.94 694.964 1317.04 695.045 1317.1C695.085 1317.13 695.115 1317.15 695.135 1317.17C695.145 1317.18 695.152 1317.18 695.156 1317.19C695.158 1317.19 695.16 1317.19 695.161 1317.19L699.664 1311.41L695.162 1317.19L701.469 1322.1L705.813 1315.39C705.815 1315.39 705.817 1315.39 705.82 1315.38C705.827 1315.37 705.839 1315.35 705.854 1315.33C705.886 1315.28 705.937 1315.2 706.005 1315.1C706.141 1314.89 706.348 1314.58 706.623 1314.17C707.174 1313.34 707.998 1312.12 709.076 1310.57C711.233 1307.45 714.4 1302.99 718.412 1297.66C726.447 1286.98 737.819 1272.88 751.21 1259.09C764.636 1245.27 779.879 1231.98 795.63 1222.74C811.442 1213.46 827.057 1208.65 841.548 1210.61C997.007 1231.57 1111.41 1300.43 1185.67 1402.99H184.531C244.24 1295.51 329.165 1227.09 466.851 1195.7Z" fill="#9287FF" stroke="black" stroke-width="14.6526"/>
<path d="M423.508 1205.49L442.434 1135.04C443.201 1132.19 446.892 1131.38 448.885 1133.56C503.331 1193.14 572.038 1190.81 594.843 1188.07C597.939 1187.7 600.363 1191.09 598.908 1193.85L550.712 1285.25C549.974 1286.66 548.462 1287.43 546.911 1287.1C532.447 1284.09 460.377 1266.47 423.933 1208.36C423.399 1207.51 423.247 1206.46 423.508 1205.49Z" fill="#E0DDFF" stroke="black" stroke-width="14.6526"/>
<path d="M901.85 1205.11L859.429 1133.75C857.988 1131.32 854.44 1131.36 852.905 1133.73C831.89 1166.09 795.644 1181 782.969 1185.41C780.689 1186.2 779.646 1188.91 780.875 1190.99L830.338 1274.56C831.076 1275.81 832.47 1276.49 833.864 1276.09C841.684 1273.86 868.518 1262.64 901.802 1208.92C902.518 1207.77 902.544 1206.28 901.85 1205.11Z" fill="#E0DDFF" stroke="black" stroke-width="14.6526"/>
<path d="M631.895 1269.29L598.927 1190.53L573.285 1245.48L631.895 1269.29Z" fill="black" stroke="black" stroke-width="14.6526" stroke-linejoin="round"/>
<path d="M747.284 1265.62L780.253 1186.87L805.895 1241.81L747.284 1265.62Z" fill="black" stroke="black" stroke-width="14.6526" stroke-linejoin="round"/>
<path d="M489.032 1120.93L445.074 1131.92L481.706 1155.73L489.032 1120.93Z" fill="black" stroke="black" stroke-width="14.6526" stroke-linejoin="round"/>
<path d="M816.884 1120.93L857.179 1131.92L831.537 1155.73L816.884 1120.93Z" fill="black" stroke="black" stroke-width="14.6526" stroke-linejoin="round"/>
</g>
<defs>
<clipPath id="clip0_347_4060">
<rect width="732.632" height="1172.21" fill="white" transform="translate(329.684 157.516)"/>
</clipPath>
</defs>
</svg>
