<svg width="1392" height="1392" viewBox="0 0 1392 1392" fill="none" xmlns="http://www.w3.org/2000/svg">
<circle cx="696" cy="696" r="696" fill="#F4D150"/>
<mask id="mask0_347_4064" style="mask-type:alpha" maskUnits="userSpaceOnUse" x="0" y="0" width="1392" height="1392">
<circle cx="696" cy="696" r="696" fill="#FFEDEF"/>
</mask>
<g mask="url(#mask0_347_4064)">
<path d="M893.694 1364.4C840.945 1291.14 799.673 1112.87 794.789 1042.05L543.862 933.982L439.462 1364.4H893.694Z" fill="#FC909F" stroke="black" stroke-width="14.6526"/>
<mask id="mask1_347_4064" style="mask-type:alpha" maskUnits="userSpaceOnUse" x="439" y="933" width="455" height="432">
<path d="M893.694 1364.4C840.945 1291.14 799.673 1112.87 794.789 1042.05L543.862 933.982L439.462 1364.4H893.694Z" fill="#FFEDEF"/>
</mask>
<g mask="url(#mask1_347_4064)">
<ellipse cx="783.915" cy="926.781" rx="216.126" ry="197.811" fill="black"/>
</g>
<g clip-path="url(#clip0_347_4064)">
<path d="M893.81 1327.9C841.06 1254.64 799.789 1112.99 794.904 1042.17L543.978 934.107L439.578 1327.9H893.81Z" fill="#F9C9B6" stroke="black" stroke-width="14.6526"/>
<mask id="mask2_347_4064" style="mask-type:alpha" maskUnits="userSpaceOnUse" x="439" y="934" width="455" height="431">
<path d="M893.81 1364.53C841.06 1291.27 799.789 1112.99 794.904 1042.17L543.978 934.107L439.578 1364.53H893.81Z" fill="#F9C9B6"/>
</mask>
<g mask="url(#mask2_347_4064)">
<g style="mix-blend-mode:multiply">
<ellipse cx="783.915" cy="926.781" rx="216.126" ry="197.811" fill="black"/>
</g>
</g>
<mask id="path-9-inside-1_347_4064" fill="white">
<path d="M599.23 245.832C751.523 209.344 904.557 302.694 941.988 454.512L941.992 454.511L942.285 455.736C942.336 455.947 942.388 456.157 942.439 456.368C942.477 456.53 942.515 456.692 942.553 456.853L1002.73 707.998C1002.81 708.358 1002.9 708.718 1002.99 709.079C1003.07 709.407 1003.14 709.737 1003.22 710.065L1004.23 714.295L1004.19 714.305C1037.47 865.477 943.623 1016.07 792.452 1052.29C641.282 1088.51 489.38 996.794 450.54 846.954L450.49 846.966L388.248 587.183L388.255 587.181C352.822 434.884 446.937 282.32 599.23 245.832Z"/>
</mask>
<path d="M599.23 245.832C751.523 209.344 904.557 302.694 941.988 454.512L941.992 454.511L942.285 455.736C942.336 455.947 942.388 456.157 942.439 456.368C942.477 456.53 942.515 456.692 942.553 456.853L1002.73 707.998C1002.81 708.358 1002.9 708.718 1002.99 709.079C1003.07 709.407 1003.14 709.737 1003.22 710.065L1004.23 714.295L1004.19 714.305C1037.47 865.477 943.623 1016.07 792.452 1052.29C641.282 1088.51 489.38 996.794 450.54 846.954L450.49 846.966L388.248 587.183L388.255 587.181C352.822 434.884 446.937 282.32 599.23 245.832Z" fill="#F9C9B6"/>
<path d="M599.23 245.832L595.816 231.582L595.816 231.582L599.23 245.832ZM941.988 454.512L927.761 458.02L931.116 471.629L944.861 468.88L941.988 454.512ZM941.992 454.511L956.243 451.102L952.959 437.375L939.119 440.143L941.992 454.511ZM942.285 455.736L928.035 459.145L928.039 459.164L928.044 459.182L942.285 455.736ZM942.439 456.368L956.688 452.954V452.954L942.439 456.368ZM942.553 456.853L928.298 460.243L928.301 460.255L928.304 460.267L942.553 456.853ZM1002.73 707.998L988.477 711.412L988.483 711.439L988.49 711.466L1002.73 707.998ZM1002.99 709.079L1017.24 705.665L1002.99 709.079ZM1003.22 710.065L988.96 713.429L988.966 713.455L988.972 713.48L1003.22 710.065ZM1004.23 714.295L1007.57 728.562L1021.92 725.205L1018.48 710.88L1004.23 714.295ZM1004.19 714.305L1000.85 700.038L986.77 703.334L989.879 717.456L1004.19 714.305ZM792.452 1052.29L795.866 1066.54L792.452 1052.29ZM450.54 846.954L464.724 843.277L461.079 829.215L446.986 832.739L450.54 846.954ZM450.49 846.966L436.24 850.38L439.688 864.771L454.043 861.182L450.49 846.966ZM388.248 587.183L384.223 573.094L370.729 576.95L373.999 590.597L388.248 587.183ZM388.255 587.181L392.281 601.27L405.686 597.44L402.527 583.861L388.255 587.181ZM599.23 245.832L602.644 260.081C747.098 225.471 892.257 314.017 927.761 458.02L941.988 454.512L956.214 451.005C916.857 291.371 755.947 193.216 595.816 231.582L599.23 245.832ZM941.988 454.512L944.861 468.88L944.866 468.88L941.992 454.511L939.119 440.143L939.114 440.144L941.988 454.512ZM941.992 454.511L927.742 457.921L928.035 459.145L942.285 455.736L956.536 452.327L956.243 451.102L941.992 454.511ZM942.285 455.736L928.044 459.182C928.119 459.493 928.139 459.572 928.189 459.782L942.439 456.368L956.688 452.954C956.637 452.742 956.554 452.4 956.527 452.29L942.285 455.736ZM942.439 456.368L928.189 459.782C928.262 460.086 928.183 459.761 928.298 460.243L942.553 456.853L956.808 453.464C956.797 453.416 956.785 453.367 956.764 453.275C956.745 453.195 956.718 453.078 956.688 452.954L942.439 456.368ZM942.553 456.853L928.304 460.267L988.477 711.412L1002.73 707.998L1016.98 704.584L956.802 453.439L942.553 456.853ZM1002.73 707.998L988.49 711.466C988.587 711.865 988.661 712.168 988.739 712.493L1002.99 709.079L1017.24 705.665C1017.14 705.268 1017.04 704.851 1016.96 704.529L1002.73 707.998ZM1002.99 709.079L988.739 712.493C988.812 712.797 988.861 713.012 988.96 713.429L1003.22 710.065L1017.48 706.701C1017.43 706.461 1017.32 706.018 1017.24 705.665L1002.99 709.079ZM1003.22 710.065L988.972 713.48L989.986 717.71L1004.23 714.295L1018.48 710.88L1017.47 706.65L1003.22 710.065ZM1004.23 714.295L1000.9 700.028L1000.85 700.038L1004.19 714.305L1007.53 728.572L1007.57 728.562L1004.23 714.295ZM1004.19 714.305L989.879 717.456C1021.44 860.842 932.427 1003.68 789.038 1038.04L792.452 1052.29L795.866 1066.54C954.818 1028.45 1053.49 870.113 1018.5 711.155L1004.19 714.305ZM792.452 1052.29L789.038 1038.04C645.649 1072.39 501.563 985.401 464.724 843.277L450.54 846.954L436.356 850.63C477.196 1008.19 636.914 1104.62 795.866 1066.54L792.452 1052.29ZM450.54 846.954L446.986 832.739L446.936 832.751L450.49 846.966L454.043 861.182L454.094 861.169L450.54 846.954ZM450.49 846.966L464.739 843.552L402.498 583.769L388.248 587.183L373.999 590.597L436.24 850.38L450.49 846.966ZM388.248 587.183L392.274 601.272L392.281 601.27L388.255 587.181L384.23 573.092L384.223 573.094L388.248 587.183ZM388.255 587.181L402.527 583.861C368.918 439.404 458.189 294.691 602.644 260.081L599.23 245.832L595.816 231.582C435.685 269.949 336.727 430.365 373.984 590.502L388.255 587.181Z" fill="black" mask="url(#path-9-inside-1_347_4064)"/>
</g>
<path d="M657.538 807.727C666.695 870 771.095 899.306 866.338 827.874" stroke="black" stroke-width="14.6526"/>
<path d="M802.23 484.323C822.988 474.555 871.83 465.641 901.136 508.134" stroke="black" stroke-width="14.6526" stroke-linecap="round"/>
<path d="M525.952 577.025C533.537 555.374 561.419 514.293 612.266 523.182" stroke="black" stroke-width="14.6526" stroke-linecap="round"/>
<path d="M499.385 205.837C566.697 178.561 633.528 173.78 669.582 177.622L669.861 177.651L670.143 177.66C767.836 180.533 843.78 219.412 897.524 266.858C949.013 312.314 979.759 365.301 989.786 401.415C974.914 409.904 949.439 417.209 916.945 423.199C881.502 429.734 838.946 434.506 795.523 437.907C708.683 444.71 618.997 445.986 577.106 445.075L554.86 444.592L572.468 458.197C581.617 465.267 593.795 470.187 606.676 473.647C619.649 477.133 633.853 479.27 647.452 480.485C661.459 481.737 675.116 482.03 686.429 481.741C647.647 511.639 598.288 534.631 549.617 551.671C493.402 571.352 438.734 582.883 403.717 588.015L395.844 589.168L397.642 596.919C415.344 673.222 454.469 831.929 461.757 862.539C465.729 879.22 478.234 902.999 492.508 924.916C505.668 945.124 521.026 964.799 533.983 976.911L505.27 1093.45H396.983C427.526 1046.88 433.973 993.073 427.745 936.001C421.004 874.225 399.314 807.773 376.45 741.24C353.477 674.39 329.313 607.432 316.842 543.548C304.382 479.721 303.827 419.986 327.219 367.465C365.092 282.429 432.23 233.049 499.385 205.837Z" fill="white" stroke="black" stroke-width="14.6526"/>
<ellipse cx="616.006" cy="615.229" rx="32.9684" ry="36.6316" transform="rotate(-6.77646 616.006 615.229)" fill="black"/>
<ellipse cx="850.56" cy="578.584" rx="32.9684" ry="36.6316" transform="rotate(-6.27568 850.56 578.584)" fill="black"/>
<path d="M744.446 619.105C751.583 669.89 782.583 706.224 782.583 706.224C782.583 706.224 772.946 729.774 735.651 727.617" stroke="black" stroke-width="14.6526"/>
<path d="M479.873 793.205L477.917 795.313C464.516 809.752 446.916 820.548 426.845 820.548C414.691 820.548 403.28 818.756 394.365 813.689C385.012 808.374 378.959 799.747 377.533 787.775C377.038 783.622 377.355 779.675 378.422 776.015C365.426 764.6 357.589 747.423 355.644 724.083C353.648 700.131 361.165 680.917 375.098 667.776C388.877 654.781 408.22 648.38 428.881 648.38C446.068 648.38 462.701 652.972 476.378 661.365L479.873 663.51V793.205Z" stroke="black" stroke-width="14.6526"/>
<path d="M428.881 655.706C467.32 655.706 502.145 680.553 502.145 717.98C502.145 720.428 502.01 722.846 501.75 725.227C499.724 761.747 467.533 813.222 426.845 813.222C403.629 813.222 387.113 806.256 384.808 786.909C384.209 781.879 385.154 777.473 387.31 773.723C373.738 764.033 364.983 747.936 362.945 723.475C359.282 679.517 390.443 655.706 428.881 655.706Z" fill="#F9C9B6"/>
<path d="M445.073 686.845C430.42 680.129 398.185 676.588 386.462 716.15" stroke="black" stroke-width="14.6526"/>
<path d="M406.61 688.675C414.547 695.391 429.688 716.148 426.757 745.454" stroke="black" stroke-width="14.6526"/>
<path d="M674.02 1175.65C708.657 1175.65 735.61 1180.94 761.188 1187.91C786.346 1194.77 811.849 1203.82 840.886 1210.49L841.398 1210.61L841.923 1210.65C1010.89 1224.58 1112.2 1299.64 1185.74 1402.99H184.529C244.238 1295.51 329.162 1227.09 466.849 1195.7C525.508 1182.33 593.844 1175.65 674.02 1175.65Z" fill="#77311D" stroke="black" stroke-width="14.6526"/>
<path d="M424.667 1203.65L458.197 1131.86C458.998 1130.15 460.988 1129.33 462.772 1129.96C601.702 1179.14 728.091 1175.68 845.218 1143.07C846.693 1142.66 848.268 1143.21 849.171 1144.44L900.207 1214.23C901.61 1216.15 900.895 1218.86 898.683 1219.73C775.575 1268.07 544.571 1259.85 426.443 1208.49C424.569 1207.68 423.803 1205.5 424.667 1203.65Z" fill="white" stroke="black" stroke-width="14.6526"/>
</g>
<defs>
<clipPath id="clip0_347_4064">
<rect width="732.632" height="1172.21" fill="white" transform="translate(329.684 157.518)"/>
</clipPath>
</defs>
</svg>
